<?xml version="1.0" encoding="utf-8"?>
<!-- Generator: Adobe Illustrator 16.0.0, SVG Export Plug-In . SVG Version: 6.00 Build 0)  -->
<!DOCTYPE svg PUBLIC "-//W3C//DTD SVG 1.1//EN" "http://www.w3.org/Graphics/SVG/1.1/DTD/svg11.dtd">
<svg version="1.1" id="Layer_1" xmlns="http://www.w3.org/2000/svg" xmlns:xlink="http://www.w3.org/1999/xlink" x="0px" y="0px"
	 width="23.404px" height="16.97px" viewBox="0 0 23.404 16.97" enable-background="new 0 0 23.404 16.97" xml:space="preserve">
<g>
	<path fill="none" d="M13.284,2.439c-0.719,0.04-0.716,0.04-0.716,0.04v11.926c0.693,0.041,0.033,0.041,0.716,0.041
		c3.439,0,7.333-2.688,7.333-6.004C20.617,5.126,16.72,2.243,13.284,2.439z"/>
	<path fill="#2D6BB3" d="M11.653,0.229c-1.3,0.057-1.297,0.057-1.297,0.057v16.412c1.246,0.056,0.061,0.056,1.297,0.056
		c6.218,0,11.26-3.7,11.26-8.262C22.913,3.928,17.865-0.042,11.653,0.229z M13.284,14.446c-0.684,0-0.023,0-0.716-0.041V2.479
		c0,0-0.003,0,0.716-0.04c3.436-0.197,7.333,2.687,7.333,6.002C20.617,11.758,16.723,14.446,13.284,14.446z"/>
	<path d="M0.492,8.424c0,2.611,1.646,4.938,4.222,6.452L0.98,16.754l7.235-0.487c0.017,0.004,0.065,0.007,0.065,0.012V0.569
		C3.715,1.646,0.492,4.754,0.492,8.424z"/>
</g>
</svg>
