<?xml version="1.0" encoding="utf-8"?>
<!-- Generator: Adobe Illustrator 16.0.0, SVG Export Plug-In . SVG Version: 6.00 Build 0)  -->
<!DOCTYPE svg PUBLIC "-//W3C//DTD SVG 1.1//EN" "http://www.w3.org/Graphics/SVG/1.1/DTD/svg11.dtd">
<svg version="1.1" id="Layer_1" xmlns="http://www.w3.org/2000/svg" xmlns:xlink="http://www.w3.org/1999/xlink" x="0px" y="0px"
	 width="164.891px" height="138.218px" viewBox="0 0 164.891 138.218" enable-background="new 0 0 164.891 138.218"
	 xml:space="preserve">
<g>
	<path fill="none" d="M95.283,16.069C90.082,16.366,90,16.366,90,16.366v86.212c5,0.295,0.34,0.295,5.283,0.295
		c24.859,0,53.012-19.432,53.012-43.403C148.295,35.5,120.119,14.649,95.283,16.069z"/>
	<path d="M0,59.826c0,14.182,7,27.203,18,37.445v-74.89C7,32.625,0,45.645,0,59.826z"/>
	<path d="M36,99.832l-17.191,38.387L36,128.173l18-10.57V3.573c-6,1.681-12,3.928-18,6.671V99.832z"/>
	<path fill="#2D6BB3" d="M83.486,0.094C74.083,0.503,74,0.503,74,0.503v118.648c10,0.406,0.548,0.406,9.486,0.406
		c44.959,0,81.404-26.744,81.404-59.732C164.891,26.837,128.402-1.86,83.486,0.094z M95.283,102.873c-4.943,0-0.283,0-5.283-0.295
		V16.366c0,0,0.082,0,5.283-0.297c24.836-1.42,53.012,19.431,53.012,43.401C148.295,83.441,120.143,102.873,95.283,102.873z"/>
</g>
</svg>
